<svg xmlns="http://www.w3.org/2000/svg" viewBox="0 0 46.71 16.93"><defs><style>.cls-1{fill:#fff;}</style></defs><g id="Layer_2" data-name="Layer 2"><g id="Layer_1-2" data-name="Layer 1"><g id="Layer_2-2" data-name="Layer 2"><g id="Layer_1-2-2" data-name="Layer 1-2"><path class="cls-1" d="M27,15.38A8.56,8.56,0,0,0,28.9,9.63a26.47,26.47,0,0,0-.25-4.27A5.56,5.56,0,0,0,24.12.28,11.84,11.84,0,0,0,22,.06H16.8a6,6,0,0,0-5.3,2.73c-1.38,1.92-2.7,3.89-4,5.86-1,1.53-2,3.1-3,4.65A7.25,7.25,0,0,1,0,16.75a2.08,2.08,0,0,0,.6.18H3.24a5,5,0,0,0,3.93-2,38.92,38.92,0,0,0,2.44-3.36c1.2-1.83,2.32-3.74,3.51-5.58,1.39-2.06,1.44-2.06,3.75-2.06h5a8.15,8.15,0,0,1,1.21,0,2.63,2.63,0,0,1,2.47,2.63,12.57,12.57,0,0,1,0,4.15,2.42,2.42,0,0,1-2.26,2.45c-2.2.11-4.4.09-6.61.11h-5.1C10.31,15,9,16.48,6.91,16.78a2.38,2.38,0,0,0,.52.15H22.5A6.83,6.83,0,0,0,27,15.38Z"/><path class="cls-1" d="M46.71,16.73a10.42,10.42,0,0,1-1.48.11,16.87,16.87,0,0,1-2.83-.22,6,6,0,0,1-3.63-2.87C37.6,12,36.46,10.21,35.31,8.43c-1.05-1.61-2.07-3.25-3.15-4.84a6.87,6.87,0,0,0-4-3.22.53.53,0,0,1-.35-.29,17.56,17.56,0,0,1,3.4,0,6.37,6.37,0,0,1,4.87,3.27q3.09,4.75,6.19,9.57A8.34,8.34,0,0,0,46.71,16.73Z"/></g></g></g></g></svg>