<svg xmlns="http://www.w3.org/2000/svg" viewBox="0 0 46.71 16.93"><defs><style>.cls-1{fill:#fff;}</style></defs><g id="Layer_2" data-name="Layer 2"><g id="Layer_1-2" data-name="Layer 1"><g id="Layer_2-2" data-name="Layer 2"><g id="Layer_1-2-2" data-name="Layer 1-2"><path class="cls-1" d="M27,1.55A8.56,8.56,0,0,1,28.9,7.3a26.47,26.47,0,0,1-.25,4.27,5.55,5.55,0,0,1-4.53,5.08,11,11,0,0,1-2.13.22H16.8a6,6,0,0,1-5.3-2.73c-1.38-1.92-2.7-3.89-4-5.86-1-1.53-2-3.1-3-4.65A7.29,7.29,0,0,0,0,.18,2.45,2.45,0,0,1,.6,0H3.24A5,5,0,0,1,7.17,2,38.92,38.92,0,0,1,9.61,5.36c1.2,1.83,2.32,3.74,3.51,5.58C14.51,13,14.56,13,16.87,13h5a8.15,8.15,0,0,0,1.21,0,2.63,2.63,0,0,0,2.47-2.63,12.57,12.57,0,0,0,0-4.15,2.42,2.42,0,0,0-2.26-2.45c-2.2-.11-4.4-.09-6.61-.11h-5.1C10.31,1.94,9,.45,6.91.15A2.38,2.38,0,0,1,7.43,0H22.5A6.88,6.88,0,0,1,27,1.55Z"/><path class="cls-1" d="M46.71.2A10.42,10.42,0,0,0,45.23.09,18,18,0,0,0,42.4.31a6,6,0,0,0-3.63,2.87C37.6,4.94,36.46,6.72,35.31,8.5c-1.05,1.61-2.07,3.25-3.15,4.84a6.84,6.84,0,0,1-4,3.22.56.56,0,0,0-.35.29,17.56,17.56,0,0,0,3.4,0,6.37,6.37,0,0,0,4.87-3.27Q39.14,8.82,42.24,4A8.39,8.39,0,0,1,46.71.2Z"/></g></g></g></g></svg>