<svg xmlns="http://www.w3.org/2000/svg" viewBox="0 0 2048 2046.2"><defs><style>.cls-1{fill:#fff;}</style></defs><g id="Layer_2" data-name="Layer 2"><g id="Layer_1-2" data-name="Layer 1"><path class="cls-1" d="M1538,0h48c3.22.68,6.42,1.86,9.66,2,24.39.83,48.31,4.89,72.09,10,196,42.45,348.65,206.9,376.29,405.38,1.41,10.12,2.64,20.26,4,30.39v82c-1,7.88-1.78,15.78-2.87,23.65-7,50.14-21.49,98.12-41.63,144.47-24.65,56.73-56.07,109.7-90.17,161.11-43.82,66.07-88.71,131.43-132.12,197.77-49.72,76-93,155.44-125.9,240.31-29.11,75.17-49.29,152.62-59.5,232.62-1.81,14.2-3.09,28.47-5.31,42.61-2.11,13.44-12.37,22.52-25.76,24a29.07,29.07,0,0,1-29.61-17.76A53.72,53.72,0,0,1,1532,1564a1008.86,1008.86,0,0,0-17.38-112.45C1494,1354,1458.73,1262,1412,1174.21c-42.53-79.81-92.52-154.9-144.38-228.87C1227,887.51,1187.47,829,1153.31,767.05c-1.71-3.09-3.66-6-6.16-10.15-4.05,3.85-7.2,6.7-10.2,9.7q-264.09,263.91-528.16,527.86Q457.49,1445.69,306.22,1597,158.15,1745.06,10.15,1893.21c-3,3-6.75,5.26-10.15,7.86V337.84c1.34-4,3.15-8,4-12.09C12.87,279.89,38.8,246.61,79.14,224c24.23-13.56,50.65-18,78-18q136-.08,272-.11,354-.12,707.95-.21c9.12,0,18.31.71,23.49-7.89,2.7-.48,4.34-.71,6-1.08s3.18-.87,4.43-1.21a28.67,28.67,0,0,0,2.49-2.33c1.5-1.79,2.9-3.65,4.35-5.48,54.43-69,122.28-120.27,204-152.88,47-18.77,95.79-30.31,146.54-32.87C1531.57,1.81,1534.77.68,1538,0ZM669.59,560.48c-5.09-.39-8.35-.85-11.61-.86q-115.49-.07-231,0a93.85,93.85,0,0,0-10.23,1.08c-2.63,12.48-2,96,.83,104.13,4.22.25,8.8.75,13.39.76,38,0,76,0,114,0,4.14,0,8.28.57,13.41.94-1,4.87-1.47,8.45-2.52,11.86C546,710.5,526,734.66,496.57,750.63c-36.37,19.75-75.51,24.9-115.31,15-62-15.37-102.07-55.66-117.76-117-15.79-61.72,2.13-115.48,48.56-158.83,56-52.29,144.35-53.75,199.62-6.57a81.44,81.44,0,0,0,6.83,4.79c11.87-8.78,72.64-70.49,76.42-77.68-3-2.77-6-5.84-9.27-8.57-62.47-52-134.56-70.44-214-57.57C229,367.35,130.43,500,149.23,642.82c11.57,87.93,56.53,154.81,132.92,199.57,63.4,37.14,131.85,44.5,202.78,27.79,72.6-17.11,126.74-58.79,160.51-125.66,23.4-46.35,31-96,28.33-147.43C673.16,585.22,671.11,573.43,669.59,560.48Z"/><path class="cls-1" d="M177,2045.55c3.46-5.4,746.51-745.55,751.54-748.56,3.08,2.59,6.75,5.26,9.93,8.43q75.45,75.12,150.76,150.36,261.72,261.38,523.42,522.76c20,20,40.31,39.8,60.45,59.71,1.85,1.83,3.49,3.87,5.05,5.61a7.64,7.64,0,0,1-.54,1.44c-.19.25-.51.58-.77.58q-746.91.19-1493.82.32C181.43,2046.2,179.82,2045.86,177,2045.55Z"/></g></g></svg>