<svg xmlns="http://www.w3.org/2000/svg" viewBox="0 0 194.12 193.95"><defs><style>.cls-1{fill:#fff;}</style></defs><g id="Layer_2" data-name="Layer 2"><g id="Layer_1-2" data-name="Layer 1"><path class="cls-1" d="M109.51,55c3.31-.38,4.74-3.5,7.22-5.12,5.77-3.77,11.12-8.17,16.61-12.35A6.12,6.12,0,0,0,134.4,36a24.4,24.4,0,0,0,8-6c3-.88,4.75-3.56,7.39-5a51,51,0,0,0,5.81-4c1.27-.95,2.69-1.83,2.84-3.64,4.35-.67,6.76-4.4,10.23-6.43,3.68-2.16,6.8-5.26,10.3-8,7.82,3.55,13.67,8.57,14,18.15.11-3.34.21-6.68.32-10l.61,0q0,41.36,0,82.69c-.11.06-.26.2-.34.17s-.35-.22-.35-.34c0-23.78,0-47.56,0-71.93-2.35,1.7-4.22,3-6.06,4.38-3.3,2.46-6.59,4.93-9.85,7.45A6.4,6.4,0,0,0,176.21,35c-.73.23-1.72.24-2.16.74-3,3.43-7.21,5.23-10.57,8.2-3,2.7-6.58,4.85-9.88,7.28-3,2.24-6,4.68-9.15,6.72a14.32,14.32,0,0,0-4.68,5l-.75-.76a4.23,4.23,0,0,0-.68.41c-1.32,1.08-2.91,2-3.86,3.32s-2.6,1.45-3.62,2.33c-2.66,2.29-5.74,4-8.29,6.37A28.12,28.12,0,0,1,110.29,81c-3.27.83-6.62,1.45-9.7,2.94-.68.34-1.55.34-2.17.74a1.91,1.91,0,0,0-.7.93c-4.65-.4-8.06,2.19-12.33,2.41,6.17-9.37,11.46-18.64,18.4-28.39C105,58.71,107.76,57.51,109.51,55ZM179.29,6.9C174.66,10,170,13.09,165.75,17.37c5.55,2.82,8.3,7.44,10.25,13.24l12.84-9.39c1.13-4-.51-6.69-2.2-9.07S182.72,7.39,179.29,6.9ZM98.69,81.61C102,80.68,105,80,107.87,79c3.77-1.34,8.2-1.52,10.8-6l-1.11-2.49-4.35.67c2.83-3.43,2.83-3.43.68-6.24l-4.65.88c.48-.87.79-1.52,1.18-2.12a13.6,13.6,0,0,1,.91-1.3L110,59.8l-4.81,2.32c-3.18,4.84-6.11,9.26-9,13.73a7.21,7.21,0,0,0-.72,2.08ZM114,60.73c14.8-11.75,30.43-22.42,45.23-34.08l-3.54-2.41L111.66,57.36Zm50.5-26.1c-5.79,4.31-11.52,8.26-16.88,12.65-4.43,3.65-9.64,6.25-13.63,10.5-1.25,1.34-3.08,2.12-4.6,3.23-3.2,2.33-6.36,4.7-9.52,7.07-.15.12-.16.44-.13.38l2.16,3.34c.35-.32,42.91-32.47,43.45-32.8a6.94,6.94,0,0,0,.8-.46c.09-.07,0-.31.08-.62ZM118.06,66.07l45.3-34.18-1.93-3.36L115.12,63.16a6.51,6.51,0,0,1,1.52.86A16,16,0,0,1,118.06,66.07Z"/><path class="cls-1" d="M59.13,1c.93-.77,1-1,1.18-1H194.06a34.33,34.33,0,0,1-.8,10V1Z"/><path class="cls-1" d="M10,87a1.39,1.39,0,0,1,0-.5c.65-1.56,1.7-3.06,1.9-4.68a66.32,66.32,0,0,0,.08-8V.22H58.48c.07.15.19.29.15.37s-.22.35-.33.35H13.18V79L15,78c-.37,3-2.39,5.26-3.49,7.94C11.27,86.42,10.48,86.65,10,87Z"/><path class="cls-1" d="M174.22,181v1.5c.26.17.52.48.78.48,5.94,0,11.88,0,18.13,0V95.21c.42,0,.57-.09.65,0s.33.23.33.35c0,29.42,0,58.84,0,88.43H173.86c-2.34,1.66-1.82,5.1-4.62,6.05.37-3,2.38-5.26,3.48-7.94C172.92,181.58,173.7,181.35,174.22,181Z"/><path class="cls-1" d="M150.33,184l-1.61-.31a9.35,9.35,0,0,0-.93-.62,7.64,7.64,0,0,1-.72.68,1.85,1.85,0,0,1-.89.24H50.91c3.77-1.33,7.6-.91,11.41-1,4-.08,7.95,0,11.93,0H146.4c-1.45-2.05-4.41-1.48-5-4,3,.37,5.24,2.4,7.9,3.5C149.74,182.7,150,183.49,150.33,184Z"/><path class="cls-1" d="M13,183c-1.36,0-1-1.06-1-1.78,0-4.48,0-8.95,0-13.43q0-26.61,0-53.23c0-1.61.12-3.21-1-4.56a4.55,4.55,0,0,1,4,2H13.44a2.15,2.15,0,0,0-.32.35.91.91,0,0,0-.16.43Z"/><path class="cls-1" d="M81.64,97c4.1,1.08,10.94,4.78,12.94,7-.66.75-1.31,1.51-2,2.24-1.08,1.18-1,3.33-3,3.76,0-2.6,1.93-4.38,2.87-6.61l-3.13-1.54L85.62,106c.54-1.55,1.09-3.11,1.72-4.93L83.9,99c-.33,1.54-.84,2.63-2.26,3l1-3.19Z"/><path class="cls-1" d="M13.05,183.22c11.1,0,22.29,0,33.48,0,.06,0,.13.22.36.61-11.3,0-22.44,0-33.58,0C13.19,183.81,13.07,183.28,13.05,183.22Z"/><path class="cls-1" d="M153.31,135a37.63,37.63,0,0,1,3.82,1.37c3.13,1.49,6.24,3,9.28,4.67.75.4,1.23,1.29,1.83,2l-2.7-.74-1.28.74v-1.6a13.74,13.74,0,0,1-1.66-.59,12.6,12.6,0,0,1-1.46-1c-1.4,1.53-2.62,2.87-3.85,4.2l1.72-4.93c-.89-.53-2.13-1.27-3.45-2-.32,1.54-.83,2.63-2.25,3l1-3.19Z"/><path class="cls-1" d="M115.49,115l6,2c1.1,1.75,3.36,1.65,4.72,3,.72.71,1.5,1.34,2.25,2H127c-1.45,3-1.86,3.6-3.82,4.74.93-1.93,1.7-3.55,2.63-5.49l-3.17-1.44L119.47,123l1.07-4.1c-.89-2.05-2.45-2-4.06-1.9Z"/><path class="cls-1" d="M168.24,143c.82,0,2-.35,2.38.06,2.23,2.56,5.77,2.87,8.21,5a4,4,0,0,0,2,.87,2.52,2.52,0,0,1,2.29,2L180,150l-1.8,1c.36-2.91-2.23-2.78-3.5-3.79L173.22,149v-2.82l-4-1.18C168.91,144.33,168.57,143.67,168.24,143Z"/><path class="cls-1" d="M9,109c-.5,0-1.08.18-1.47,0C5.08,107.68,2.69,106.3,0,104.8,1.7,103,1.25,100,4,99c.3,2.18-2.07,3.47-2,5.52C4.35,106.17,7.54,106.2,9,109Z"/><path class="cls-1" d="M28.89,69c4.09,1.08,8.86,3.69,10.94,6l-3.17-1-1.8,1c.36-2.91-2.23-2.78-3.5-3.79L29.88,73A5.38,5.38,0,0,0,28.89,69Z"/><path class="cls-1" d="M47.8,79c3.15-.12,5.15,1.77,7,4l-4-1-3,3,1.59-4.65Z"/><path class="cls-1" d="M78.66,146c-4.1-1.08-8.87-3.69-11-6a36.46,36.46,0,0,1,10.59,5.18C78.51,145.31,78.54,145.72,78.66,146Z"/><path class="cls-1" d="M95.58,155c-3.48-.77-6.79-1.86-9-5,3,.37,5.24,2.4,7.9,3.5C95,153.7,95.23,154.49,95.58,155Z"/><path class="cls-1" d="M40.83,126a18.46,18.46,0,0,1-9-5c3,.37,5.24,2.4,7.9,3.5C40.25,124.7,40.48,125.49,40.83,126Z"/><path class="cls-1" d="M75.67,94c2.75-.53,4.19,1.58,6,3H78.91c-.31,1.59-.83,2.66-2.25,3,.37-1.58.73-3.16,1-4.32Z"/><path class="cls-1" d="M25.9,118a18.46,18.46,0,0,1-9-5c3,.37,5.24,2.4,7.9,3.5C25.32,116.7,25.55,117.49,25.9,118Z"/><path class="cls-1" d="M114.49,165a18.46,18.46,0,0,1-9-5c3,.37,5.24,2.4,7.9,3.5C113.91,163.7,114.14,164.49,114.49,165Z"/><path class="cls-1" d="M168.24,192V194c-2.26-1.08-4.27-1.93-6.17-3a8.47,8.47,0,0,1-1.79-2,8.81,8.81,0,0,1,1.8.33C164.13,190.22,165.8,192,168.24,192Z"/><path class="cls-1" d="M66.71,89c2.56.91,5.43,1.28,7,4l-5-1Z"/><path class="cls-1" d="M140.37,128c2.57.91,5.43,1.28,7,4h-2c-1.17-1.91-3-2.09-5-2Z"/><path class="cls-1" d="M43.82,77a4.56,4.56,0,0,1,4,2c-1.49-.27-2.28.58-3,1.73a21.07,21.07,0,0,1-2,2.27l1.66-4.84Z"/><path class="cls-1" d="M104.54,109l5,1.3V112l-3,1a13.22,13.22,0,0,0-.67-2.13A14.05,14.05,0,0,0,104.54,109Z"/><path class="cls-1" d="M130.42,123c.75.15,1.9-.5,2,1-.33.41-.65.83-1,1.22-1.07,1.2-1,3.34-3,3.78.22-.72.42-1.45.66-2.16C129.52,125.55,130,124.28,130.42,123Z"/><path class="cls-1" d="M94.58,104c2.76-.53,4.19,1.58,6,3h-3c-.75-.67-1.52-1.32-2.24-2A7.35,7.35,0,0,1,94.58,104Z"/><path class="cls-1" d="M126.44,171c-2.51,0-4.74-.49-6-3C122.9,168.11,124.72,169.45,126.44,171Z"/><path class="cls-1" d="M57.75,135c-2-.35-4.07-.73-5-3C54.82,132.35,56.85,132.73,57.75,135Z"/><path class="cls-1" d="M100.55,107a4.57,4.57,0,0,1,4,2c-.87.08-2.06-.44-2,1.24,0,.25-.62.51-1,.76A5.34,5.34,0,0,0,100.55,107Z"/><path class="cls-1" d="M133.4,175c-2-.35-4.07-.73-5-3C130.47,172.35,132.5,172.73,133.4,175Z"/><path class="cls-1" d="M58.75,85c1.7-.08,3.42-.21,4,2l-2.61-.72L58.75,88Z"/><path class="cls-1" d="M182.18,166c-.35,2.05-.73,4.09-3,5C179.54,169,179.92,166.91,182.18,166Z"/><path class="cls-1" d="M62.73,87a4.55,4.55,0,0,1,4,2l-3,1Z"/><path class="cls-1" d="M134.4,125a4.55,4.55,0,0,1,4,2l-3,1Z"/><path class="cls-1" d="M105.53,160c-1.7.08-3.42.21-4-2A4.55,4.55,0,0,1,105.53,160Z"/><path class="cls-1" d="M31.87,121c-1.7.08-3.42.21-4-2A4.55,4.55,0,0,1,31.87,121Z"/><path class="cls-1" d="M19.93,68a2.46,2.46,0,0,1,1.36-2.81c.69-.42,1.56-.43,1.62.81Z"/><path class="cls-1" d="M149.33,133a4.55,4.55,0,0,1,4,2h-3Z"/><path class="cls-1" d="M63.72,138a4.56,4.56,0,0,1-4-2C61.44,135.92,63.17,135.79,63.72,138Z"/><path class="cls-1" d="M24.9,67a4.57,4.57,0,0,1,4,2h-3Z"/><path class="cls-1" d="M118.47,167a4.55,4.55,0,0,1-4-2C116.19,164.92,117.91,164.79,118.47,167Z"/><path class="cls-1" d="M82.64,148a5.29,5.29,0,0,1-4-1v-1A4.56,4.56,0,0,1,82.64,148Z"/><path class="cls-1" d="M187.16,153h2.33c-1,1.29-1.67,2.15-2.33,3Z"/><path class="cls-1" d="M177,66.17v3.65l-.62,0c-.08-1.22-.17-2.43-.25-3.65Z"/><path class="cls-1" d="M183.17,151c.76.15,1.91-.5,2,1l-2,1Z"/><ellipse class="cls-1" cx="29.38" cy="158.5" rx="0.35" ry="2.12"/><path class="cls-1" d="M111.5,113c.76.15,1.91-.5,2,1l-2,1Z"/><path class="cls-1" d="M39.83,75c.76.15,1.91-.5,2,1l-2,1Z"/><path class="cls-1" d="M102.72,94.84V93.18l.47-.07.39,1.62Z"/><path class="cls-1" d="M5,97c.15-.76-.5-1.91,1-2C5.84,95.76,6.48,96.91,5,97Z"/><path class="cls-1" d="M4,99c.15-.76-.49-1.91,1-2C4.85,97.76,5.49,98.91,4,99Z"/><ellipse class="cls-1" cx="103.04" cy="98" rx="0.35" ry="1.41"/><ellipse class="cls-1" cx="139.87" cy="98" rx="0.35" ry="1.41"/><path class="cls-1" d="M165.09,97.16v1.66l-.48.07-.38-1.62Z"/><path class="cls-1" d="M151.48,104.17h1.65l.08.48-1.62.38Z"/><path class="cls-1" d="M11,110c-.76-.15-1.91.5-2-1C9.73,109.15,10.88,108.5,11,110Z"/><ellipse class="cls-1" cx="152.32" cy="110.5" rx="1.41" ry="0.35"/><path class="cls-1" d="M16.94,113c-.75-.15-1.91.5-2-1C15.7,112.15,16.86,111.5,16.94,113Z"/><path class="cls-1" d="M109.51,112c.76.15,1.91-.5,2,1C110.75,112.85,109.6,113.5,109.51,112Z"/><path class="cls-1" d="M113.5,114c.75.15,1.9-.5,2,1C114.73,114.85,113.58,115.5,113.5,114Z"/><path class="cls-1" d="M153.15,116.83H151.5l-.07-.48,1.62-.38Z"/><path class="cls-1" d="M27.89,119c-.75-.15-1.91.5-2-1C26.65,118.15,27.8,117.5,27.89,119Z"/><path class="cls-1" d="M128.43,122c.75.15,1.9-.5,2,1C129.66,122.85,128.51,123.5,128.43,122Z"/><path class="cls-1" d="M132.41,124c.75.15,1.9-.5,2,1C133.64,124.85,132.49,125.5,132.41,124Z"/><path class="cls-1" d="M8,91c.15-.76-.49-1.91,1-2C8.83,89.76,9.47,90.91,8,91Z"/><path class="cls-1" d="M42.82,127c-.75-.15-1.91.5-2-1C41.58,126.15,42.74,125.5,42.82,127Z"/><path class="cls-1" d="M44.81,128c-.75-.15-1.9.5-2-1C43.58,127.15,44.73,126.5,44.81,128Z"/><path class="cls-1" d="M138.38,127c.75.15,1.91-.5,2,1C139.62,127.85,138.47,128.5,138.38,127Z"/><path class="cls-1" d="M41,129.84v-1.66l.47-.07.39,1.62Z"/><path class="cls-1" d="M46.8,129c-.75-.15-1.9.5-2-1C45.57,128.15,46.72,127.5,46.8,129Z"/><path class="cls-1" d="M6,95c.15-.76-.49-1.91,1-2C6.84,93.76,7.48,94.91,6,95Z"/><path class="cls-1" d="M164.43,129.84v-1.66l.47-.07.39,1.62Z"/><path class="cls-1" d="M48.79,130c-.75-.15-1.9.5-2-1C47.56,129.15,48.71,128.5,48.79,130Z"/><path class="cls-1" d="M50.78,131c-.75-.15-1.9.5-2-1C49.55,130.15,50.7,129.5,50.78,131Z"/><path class="cls-1" d="M54.58,17.83H52.93l-.06-.49L54.53,17Z"/><path class="cls-1" d="M52.77,132c-.75-.15-1.9.5-2-1C51.54,131.15,52.69,130.5,52.77,132Z"/><ellipse class="cls-1" cx="152.32" cy="79.5" rx="1.41" ry="0.35"/><path class="cls-1" d="M147.34,132c.75.15,1.91-.5,2,1C148.58,132.85,147.42,133.5,147.34,132Z"/><path class="cls-1" d="M153.13,54.83h-1.65l-.07-.49,1.68-.37Z"/><path class="cls-1" d="M59.74,136c-.75-.15-1.9.5-2-1C58.51,135.15,59.66,134.5,59.74,136Z"/><path class="cls-1" d="M7,93c.15-.76-.5-1.91,1-2C7.83,91.76,8.48,92.91,7,93Z"/><path class="cls-1" d="M65.72,139c-.76-.15-1.91.5-2-1C64.48,138.15,65.63,137.5,65.72,139Z"/><path class="cls-1" d="M67.71,140c-.76-.15-1.91.5-2-1C66.47,139.15,67.62,138.5,67.71,140Z"/><path class="cls-1" d="M54.77,83c.75.15,1.9-.5,2,1h-2Z"/><path class="cls-1" d="M52.93,141.17h1.65l.08.48L53,142Z"/><path class="cls-1" d="M56.76,84c.75.15,1.9-.5,2,1C58,84.85,56.84,85.5,56.76,84Z"/><ellipse class="cls-1" cx="53.77" cy="60.5" rx="1.41" ry="0.35"/><path class="cls-1" d="M15.94,76c.15-.76-.49-1.91,1-2C16.79,74.76,17.43,75.91,15.94,76Z"/><path class="cls-1" d="M84.63,149c-.76-.15-1.91.5-2-1C83.39,148.15,84.54,147.5,84.63,149Z"/><path class="cls-1" d="M86.62,150c-.76-.15-1.91.5-2-1C85.38,149.15,86.53,148.5,86.62,150Z"/><path class="cls-1" d="M151.5,17.17h1.66l.06.49-1.68.37Z"/><path class="cls-1" d="M15,78c.15-.76-.49-1.91,1-2C15.79,76.76,16.44,77.91,15,78Z"/><path class="cls-1" d="M185.16,152c.76.15,1.91-.5,2,1C186.4,152.85,185.25,153.5,185.16,152Z"/><path class="cls-1" d="M29.71,153.16v1.66l-.47.07-.39-1.62Z"/><ellipse class="cls-1" cx="53.77" cy="23.5" rx="1.41" ry="0.35"/><path class="cls-1" d="M41.83,76c.75.15,1.9-.5,2,1C43.06,76.85,41.91,77.5,41.83,76Z"/><path class="cls-1" d="M97.57,156c-.76-.15-1.91.5-2-1C96.33,155.15,97.48,154.5,97.57,156Z"/><path class="cls-1" d="M99.56,157c-.76-.15-1.91.5-2-1C98.32,156.15,99.47,155.5,99.56,157Z"/><path class="cls-1" d="M187.16,156c-.15.76.49,1.91-1,2C186.31,157.24,185.67,156.09,187.16,156Z"/><path class="cls-1" d="M101.55,158c-.75-.15-1.91.5-2-1C100.31,157.15,101.47,156.5,101.55,158Z"/><path class="cls-1" d="M77.83,159.82v-1.66l.49-.07.37,1.69Z"/><path class="cls-1" d="M186.16,158c-.15.76.49,1.91-1,2C185.31,159.24,184.67,158.09,186.16,158Z"/><ellipse class="cls-1" cx="41.33" cy="160" rx="0.35" ry="1.41"/><path class="cls-1" d="M185.16,160c-.15.76.5,1.91-1,2C184.32,161.24,183.68,160.09,185.16,160Z"/><path class="cls-1" d="M184.17,162c-.15.76.49,1.91-1,2C183.32,163.24,182.68,162.09,184.17,162Z"/><path class="cls-1" d="M183.17,164c-.15.76.5,1.91-1,2C182.33,165.24,181.68,164.09,183.17,164Z"/><path class="cls-1" d="M22.91,66c.76.15,1.91-.5,2,1C24.15,66.85,23,67.5,22.91,66Z"/><path class="cls-1" d="M120.46,168c-.75-.15-1.9.5-2-1C119.23,167.15,120.38,166.5,120.46,168Z"/><path class="cls-1" d="M53,48.17h1.65l.07.49L53,49Z"/><path class="cls-1" d="M128.43,172c-.76-.15-1.91.5-2-1C127.19,171.15,128.34,170.5,128.43,172Z"/><path class="cls-1" d="M179.19,171c-.15.76.5,1.91-1,2C178.35,172.24,177.7,171.09,179.19,171Z"/><path class="cls-1" d="M41.66,66.18v1.66l-.49.07-.37-1.67Z"/><path class="cls-1" d="M178.2,173c-.15.76.49,1.91-1,2C177.35,174.24,176.71,173.09,178.2,173Z"/><path class="cls-1" d="M135.39,176c-.75-.15-1.9.5-2-1C134.16,175.15,135.31,174.5,135.39,176Z"/><path class="cls-1" d="M177.2,175c-.15.76.5,1.91-1,2C176.36,176.24,175.71,175.09,177.2,175Z"/><path class="cls-1" d="M137.39,177c-.76-.15-1.91.5-2-1C136.15,176.15,137.3,175.5,137.39,177Z"/><path class="cls-1" d="M176.21,177c-.15.76.49,1.91-1,2C175.36,178.24,174.72,177.09,176.21,177Z"/><path class="cls-1" d="M141.37,179c-.76-.15-1.91.5-2-1C140.13,178.15,141.28,177.5,141.37,179Z"/><path class="cls-1" d="M153.13,91.83h-1.65l-.07-.49,1.68-.37Z"/><path class="cls-1" d="M175.21,179c-.15.76.49,1.91-1,2C174.37,180.24,173.72,179.09,175.21,179Z"/><ellipse class="cls-1" cx="66.21" cy="67" rx="0.35" ry="1.41"/><ellipse class="cls-1" cx="84.63" cy="91.5" rx="1.41" ry="0.35"/><path class="cls-1" d="M152.32,185c-.76-.15-1.91.5-2-1C151.08,184.15,152.23,183.5,152.32,185Z"/><path class="cls-1" d="M154.31,186c-.76-.15-1.91.5-2-1C153.07,185.15,154.22,184.5,154.31,186Z"/><path class="cls-1" d="M156.3,187c-.76-.15-1.91.5-2-1C155.06,186.15,156.21,185.5,156.3,187Z"/><path class="cls-1" d="M158.29,188c-.76-.15-1.91.5-2-1C157.05,187.15,158.2,186.5,158.29,188Z"/><path class="cls-1" d="M160.28,189c-.76-.15-1.91.5-2-1C159,188.15,160.19,187.5,160.28,189Z"/><path class="cls-1" d="M73.68,93c.75.15,1.9-.5,2,1h-2Z"/><path class="cls-1" d="M169.24,190c-.15.76.49,1.91-1,2C168.39,191.24,167.75,190.09,169.24,190Z"/><path class="cls-1" d="M9,89c.15-.76-.5-1.91,1-2C9.82,87.76,10.47,88.91,9,89Z"/><path class="cls-1" d="M140.2,66.18v1.66l-.49.07-.36-1.67Z"/><path class="cls-1" d="M53,29.17h1.65l.07.49L53,30Z"/><path class="cls-1" d="M165.09,66.18v1.66l-.49.07-.37-1.67Z"/><path class="cls-1" d="M89.76,29.17h1.65l.08.48L89.87,30Z"/><path class="cls-1" d="M102.72,51.82V50.16l.49-.07.36,1.67Z"/><path class="cls-1" d="M18.93,70c.15-.76-.49-1.91,1-2C19.78,68.76,20.42,69.91,18.93,70Z"/><path class="cls-1" d="M17.94,72c.15-.76-.5-1.91,1-2C18.78,70.76,19.42,71.91,17.94,72Z"/><path class="cls-1" d="M53,54.17h1.65l.07.49L53,55Z"/><path class="cls-1" d="M140.19,29.83h-1.65l-.07-.49,1.68-.37Z"/><path class="cls-1" d="M16.94,74c.15-.76-.49-1.91,1-2C17.79,72.76,18.43,73.91,16.94,74Z"/><path class="cls-1" d="M41.66,72.18v1.66l-.49.07-.37-1.67Z"/><path class="cls-1" d="M139.38,178c-.76-.15-1.91.5-2-1C138.14,177.15,139.29,176.5,139.38,178Z"/><ellipse class="cls-1" cx="72.19" cy="79.5" rx="0.23" ry="0.71"/><ellipse class="cls-1" cx="84.13" cy="79.5" rx="0.7" ry="0.24"/><ellipse class="cls-1" cx="121.96" cy="79.5" rx="0.7" ry="0.24"/><ellipse class="cls-1" cx="127.93" cy="79.5" rx="0.23" ry="0.71"/><ellipse class="cls-1" cx="133.9" cy="79.5" rx="0.7" ry="0.24"/><ellipse class="cls-1" cx="139.87" cy="79.5" rx="0.23" ry="0.71"/><ellipse class="cls-1" cx="145.85" cy="79.5" rx="0.7" ry="0.24"/><ellipse class="cls-1" cx="158.79" cy="79.5" rx="0.7" ry="0.24"/><ellipse class="cls-1" cx="164.76" cy="79.5" rx="0.23" ry="0.71"/><ellipse class="cls-1" cx="170.73" cy="79.5" rx="0.23" ry="0.71"/><ellipse class="cls-1" cx="176.7" cy="79.5" rx="0.23" ry="0.71"/><ellipse class="cls-1" cx="66.21" cy="85.5" rx="0.23" ry="0.71"/><ellipse class="cls-1" cx="72.19" cy="85.5" rx="0.23" ry="0.71"/><ellipse class="cls-1" cx="78.16" cy="85.5" rx="0.7" ry="0.24"/><ellipse class="cls-1" cx="103.04" cy="85.5" rx="0.7" ry="0.24"/><ellipse class="cls-1" cx="109.02" cy="85.5" rx="0.23" ry="0.71"/><ellipse class="cls-1" cx="114.99" cy="85.5" rx="0.23" ry="0.71"/><ellipse class="cls-1" cx="121.96" cy="85.5" rx="0.7" ry="0.24"/><ellipse class="cls-1" cx="127.93" cy="85.5" rx="0.23" ry="0.71"/><ellipse class="cls-1" cx="133.9" cy="85.5" rx="0.23" ry="0.71"/><ellipse class="cls-1" cx="139.87" cy="85.5" rx="0.7" ry="0.24"/><ellipse class="cls-1" cx="145.85" cy="85.5" rx="0.7" ry="0.24"/><ellipse class="cls-1" cx="158.79" cy="85.5" rx="0.7" ry="0.24"/><ellipse class="cls-1" cx="164.76" cy="85.5" rx="0.23" ry="0.71"/><ellipse class="cls-1" cx="170.73" cy="85.5" rx="0.23" ry="0.71"/><ellipse class="cls-1" cx="176.7" cy="85.5" rx="0.23" ry="0.71"/><ellipse class="cls-1" cx="103.04" cy="89.5" rx="0.23" ry="0.71"/><ellipse class="cls-1" cx="78.16" cy="91.5" rx="0.23" ry="0.71"/><ellipse class="cls-1" cx="91.1" cy="91.5" rx="0.23" ry="0.71"/><ellipse class="cls-1" cx="97.07" cy="91.5" rx="0.23" ry="0.71"/><ellipse class="cls-1" cx="103.04" cy="91.5" rx="0.23" ry="0.71"/><ellipse class="cls-1" cx="109.02" cy="91.5" rx="0.23" ry="0.71"/><ellipse class="cls-1" cx="114.99" cy="91.5" rx="0.7" ry="0.24"/><ellipse class="cls-1" cx="121.96" cy="91.5" rx="0.23" ry="0.71"/><ellipse class="cls-1" cx="127.93" cy="91.5" rx="0.23" ry="0.71"/><ellipse class="cls-1" cx="133.9" cy="91.5" rx="0.23" ry="0.71"/><ellipse class="cls-1" cx="139.87" cy="91.5" rx="0.23" ry="0.71"/><ellipse class="cls-1" cx="145.85" cy="91.5" rx="0.23" ry="0.71"/><ellipse class="cls-1" cx="149.83" cy="91.5" rx="0.23" ry="0.71"/><ellipse class="cls-1" cx="154.8" cy="91.5" rx="0.23" ry="0.71"/><ellipse class="cls-1" cx="158.79" cy="91.5" rx="0.23" ry="0.71"/><ellipse class="cls-1" cx="164.76" cy="91.5" rx="0.7" ry="0.24"/><ellipse class="cls-1" cx="170.73" cy="91.5" rx="0.23" ry="0.71"/><ellipse class="cls-1" cx="176.7" cy="91.5" rx="0.7" ry="0.24"/><ellipse class="cls-1" cx="78.16" cy="79.5" rx="0.23" ry="0.71"/><ellipse class="cls-1" cx="29.38" cy="17.5" rx="0.7" ry="0.24"/><ellipse class="cls-1" cx="35.36" cy="17.5" rx="0.7" ry="0.24"/><ellipse class="cls-1" cx="47.3" cy="17.5" rx="0.23" ry="0.71"/><ellipse class="cls-1" cx="60.24" cy="17.5" rx="0.7" ry="0.24"/><ellipse class="cls-1" cx="66.21" cy="17.5" rx="0.7" ry="0.24"/><ellipse class="cls-1" cx="72.19" cy="17.5" rx="0.23" ry="0.71"/><ellipse class="cls-1" cx="78.16" cy="17.5" rx="0.7" ry="0.24"/><ellipse class="cls-1" cx="84.13" cy="17.5" rx="0.23" ry="0.71"/><ellipse class="cls-1" cx="91.1" cy="17.5" rx="0.7" ry="0.24"/><ellipse class="cls-1" cx="97.07" cy="17.5" rx="0.7" ry="0.24"/><ellipse class="cls-1" cx="97.07" cy="97.5" rx="0.23" ry="0.71"/><ellipse class="cls-1" cx="103.04" cy="17.5" rx="0.7" ry="0.24"/><ellipse class="cls-1" cx="127.93" cy="97.5" rx="0.7" ry="0.24"/><ellipse class="cls-1" cx="109.02" cy="17.5" rx="0.7" ry="0.24"/><ellipse class="cls-1" cx="114.99" cy="17.5" rx="0.7" ry="0.24"/><ellipse class="cls-1" cx="176.7" cy="97.5" rx="0.23" ry="0.71"/><ellipse class="cls-1" cx="121.96" cy="17.5" rx="0.23" ry="0.71"/><ellipse class="cls-1" cx="127.93" cy="17.5" rx="0.23" ry="0.71"/><ellipse class="cls-1" cx="133.9" cy="17.5" rx="0.23" ry="0.71"/><ellipse class="cls-1" cx="139.87" cy="17.5" rx="0.7" ry="0.24"/><ellipse class="cls-1" cx="145.85" cy="17.5" rx="0.7" ry="0.24"/><ellipse class="cls-1" cx="103.04" cy="104.5" rx="0.7" ry="0.24"/><ellipse class="cls-1" cx="109.02" cy="104.5" rx="0.23" ry="0.71"/><ellipse class="cls-1" cx="114.99" cy="104.5" rx="0.7" ry="0.24"/><ellipse class="cls-1" cx="121.96" cy="104.5" rx="0.23" ry="0.71"/><ellipse class="cls-1" cx="127.93" cy="104.5" rx="0.7" ry="0.24"/><ellipse class="cls-1" cx="133.9" cy="104.5" rx="0.7" ry="0.24"/><ellipse class="cls-1" cx="139.87" cy="104.5" rx="0.7" ry="0.24"/><ellipse class="cls-1" cx="145.85" cy="104.5" rx="0.23" ry="0.71"/><ellipse class="cls-1" cx="29.38" cy="23.5" rx="0.23" ry="0.71"/><ellipse class="cls-1" cx="158.79" cy="104.5" rx="0.7" ry="0.24"/><ellipse class="cls-1" cx="164.76" cy="104.5" rx="0.7" ry="0.24"/><ellipse class="cls-1" cx="170.73" cy="104.5" rx="0.7" ry="0.24"/><ellipse class="cls-1" cx="176.7" cy="104.5" rx="0.23" ry="0.71"/><ellipse class="cls-1" cx="35.36" cy="23.5" rx="0.23" ry="0.71"/><ellipse class="cls-1" cx="41.33" cy="23.5" rx="0.23" ry="0.71"/><ellipse class="cls-1" cx="47.3" cy="23.5" rx="0.23" ry="0.71"/><ellipse class="cls-1" cx="60.24" cy="23.5" rx="0.7" ry="0.24"/><ellipse class="cls-1" cx="66.21" cy="23.5" rx="0.23" ry="0.71"/><ellipse class="cls-1" cx="72.19" cy="23.5" rx="0.7" ry="0.24"/><ellipse class="cls-1" cx="78.16" cy="23.5" rx="0.23" ry="0.71"/><ellipse class="cls-1" cx="114.99" cy="110.5" rx="0.23" ry="0.71"/><ellipse class="cls-1" cx="121.96" cy="110.5" rx="0.23" ry="0.71"/><ellipse class="cls-1" cx="127.93" cy="110.5" rx="0.7" ry="0.24"/><ellipse class="cls-1" cx="133.9" cy="110.5" rx="0.7" ry="0.24"/><ellipse class="cls-1" cx="139.87" cy="110.5" rx="0.23" ry="0.71"/><ellipse class="cls-1" cx="145.85" cy="110.5" rx="0.23" ry="0.71"/><ellipse class="cls-1" cx="84.13" cy="23.5" rx="0.7" ry="0.24"/><ellipse class="cls-1" cx="158.79" cy="110.5" rx="0.7" ry="0.24"/><ellipse class="cls-1" cx="164.76" cy="110.5" rx="0.23" ry="0.71"/><ellipse class="cls-1" cx="170.73" cy="110.5" rx="0.23" ry="0.71"/><ellipse class="cls-1" cx="176.7" cy="110.5" rx="0.23" ry="0.71"/><ellipse class="cls-1" cx="91.1" cy="23.5" rx="0.7" ry="0.24"/><ellipse class="cls-1" cx="97.07" cy="23.5" rx="0.23" ry="0.71"/><ellipse class="cls-1" cx="103.04" cy="23.5" rx="0.23" ry="0.71"/><ellipse class="cls-1" cx="109.02" cy="23.5" rx="0.7" ry="0.24"/><ellipse class="cls-1" cx="114.99" cy="23.5" rx="0.23" ry="0.71"/><ellipse class="cls-1" cx="121.96" cy="23.5" rx="0.7" ry="0.24"/><ellipse class="cls-1" cx="127.93" cy="23.5" rx="0.23" ry="0.71"/><ellipse class="cls-1" cx="133.9" cy="23.5" rx="0.23" ry="0.71"/><ellipse class="cls-1" cx="139.87" cy="23.5" rx="0.7" ry="0.24"/><ellipse class="cls-1" cx="145.85" cy="23.5" rx="0.23" ry="0.71"/><ellipse class="cls-1" cx="29.38" cy="29.5" rx="0.23" ry="0.71"/><path class="cls-1" d="M121.35,116.91l.7-.82.31.32-.81.69Z"/><ellipse class="cls-1" cx="127.93" cy="116.5" rx="0.7" ry="0.24"/><ellipse class="cls-1" cx="133.9" cy="116.5" rx="0.7" ry="0.24"/><ellipse class="cls-1" cx="139.87" cy="116.5" rx="0.23" ry="0.71"/><ellipse class="cls-1" cx="145.85" cy="116.5" rx="0.23" ry="0.71"/><ellipse class="cls-1" cx="35.36" cy="29.5" rx="0.7" ry="0.24"/><ellipse class="cls-1" cx="158.79" cy="116.5" rx="0.23" ry="0.71"/><ellipse class="cls-1" cx="164.76" cy="116.5" rx="0.23" ry="0.71"/><ellipse class="cls-1" cx="170.73" cy="116.5" rx="0.23" ry="0.71"/><ellipse class="cls-1" cx="176.7" cy="116.5" rx="0.7" ry="0.24"/><ellipse class="cls-1" cx="41.33" cy="29.5" rx="0.23" ry="0.71"/><ellipse class="cls-1" cx="47.3" cy="29.5" rx="0.7" ry="0.24"/><ellipse class="cls-1" cx="60.24" cy="29.5" rx="0.23" ry="0.71"/><ellipse class="cls-1" cx="66.21" cy="29.5" rx="0.7" ry="0.24"/><ellipse class="cls-1" cx="72.19" cy="29.5" rx="0.23" ry="0.71"/><ellipse class="cls-1" cx="84.13" cy="29.5" rx="0.23" ry="0.71"/><ellipse class="cls-1" cx="97.07" cy="29.5" rx="0.23" ry="0.71"/><ellipse class="cls-1" cx="29.38" cy="122.5" rx="0.7" ry="0.24"/><ellipse class="cls-1" cx="103.04" cy="29.5" rx="0.7" ry="0.24"/><ellipse class="cls-1" cx="133.9" cy="122.5" rx="0.23" ry="0.71"/><ellipse class="cls-1" cx="139.87" cy="122.5" rx="0.23" ry="0.71"/><ellipse class="cls-1" cx="145.85" cy="122.5" rx="0.23" ry="0.71"/><ellipse class="cls-1" cx="158.79" cy="122.5" rx="0.23" ry="0.71"/><ellipse class="cls-1" cx="170.73" cy="122.5" rx="0.7" ry="0.24"/><ellipse class="cls-1" cx="176.7" cy="122.5" rx="0.7" ry="0.24"/><ellipse class="cls-1" cx="109.02" cy="29.5" rx="0.23" ry="0.71"/><ellipse class="cls-1" cx="114.99" cy="29.5" rx="0.23" ry="0.71"/><ellipse class="cls-1" cx="121.96" cy="29.5" rx="0.7" ry="0.24"/><ellipse class="cls-1" cx="127.93" cy="29.5" rx="0.7" ry="0.24"/><ellipse class="cls-1" cx="133.9" cy="29.5" rx="0.7" ry="0.24"/><path class="cls-1" d="M142.27,30.1l-.81-.69.31-.32.7.82Z"/><ellipse class="cls-1" cx="29.38" cy="35.5" rx="0.23" ry="0.71"/><ellipse class="cls-1" cx="35.36" cy="35.5" rx="0.23" ry="0.71"/><ellipse class="cls-1" cx="41.33" cy="35.5" rx="0.7" ry="0.24"/><ellipse class="cls-1" cx="29.38" cy="128.5" rx="0.7" ry="0.24"/><ellipse class="cls-1" cx="35.36" cy="128.5" rx="0.7" ry="0.24"/><ellipse class="cls-1" cx="47.3" cy="35.5" rx="0.23" ry="0.71"/><ellipse class="cls-1" cx="66.21" cy="35.5" rx="0.23" ry="0.71"/><ellipse class="cls-1" cx="72.19" cy="35.5" rx="0.23" ry="0.71"/><ellipse class="cls-1" cx="78.16" cy="35.5" rx="0.23" ry="0.71"/><ellipse class="cls-1" cx="145.85" cy="128.5" rx="0.7" ry="0.24"/><ellipse class="cls-1" cx="103.04" cy="35.5" rx="0.23" ry="0.71"/><ellipse class="cls-1" cx="170.73" cy="128.5" rx="0.23" ry="0.71"/><ellipse class="cls-1" cx="176.7" cy="128.5" rx="0.23" ry="0.71"/><ellipse class="cls-1" cx="109.02" cy="35.5" rx="0.23" ry="0.71"/><ellipse class="cls-1" cx="127.93" cy="35.5" rx="0.23" ry="0.71"/><path class="cls-1" d="M134.31,36.1l-.81-.69.31-.32.69.82Z"/><path class="cls-1" d="M176.3,34.9l.81.69-.31.32-.7-.82Z"/><ellipse class="cls-1" cx="29.38" cy="42.5" rx="0.23" ry="0.71"/><ellipse class="cls-1" cx="35.36" cy="42.5" rx="0.23" ry="0.71"/><ellipse class="cls-1" cx="41.33" cy="42.5" rx="0.23" ry="0.71"/><ellipse class="cls-1" cx="47.3" cy="42.5" rx="0.7" ry="0.24"/><ellipse class="cls-1" cx="54.27" cy="42.5" rx="0.23" ry="0.71"/><ellipse class="cls-1" cx="60.24" cy="42.5" rx="0.7" ry="0.24"/><ellipse class="cls-1" cx="66.21" cy="42.5" rx="0.23" ry="0.71"/><ellipse class="cls-1" cx="72.19" cy="42.5" rx="0.23" ry="0.71"/><ellipse class="cls-1" cx="29.38" cy="135.5" rx="0.7" ry="0.24"/><ellipse class="cls-1" cx="35.36" cy="135.5" rx="0.23" ry="0.71"/><ellipse class="cls-1" cx="41.33" cy="135.5" rx="0.7" ry="0.24"/><ellipse class="cls-1" cx="78.16" cy="42.5" rx="0.23" ry="0.71"/><ellipse class="cls-1" cx="84.13" cy="42.5" rx="0.23" ry="0.71"/><ellipse class="cls-1" cx="158.79" cy="135.5" rx="0.23" ry="0.71"/><ellipse class="cls-1" cx="164.76" cy="135.5" rx="0.7" ry="0.24"/><ellipse class="cls-1" cx="170.73" cy="135.5" rx="0.23" ry="0.71"/><ellipse class="cls-1" cx="176.7" cy="135.5" rx="0.7" ry="0.24"/><ellipse class="cls-1" cx="91.1" cy="42.5" rx="0.7" ry="0.24"/><ellipse class="cls-1" cx="97.07" cy="42.5" rx="0.23" ry="0.71"/><ellipse class="cls-1" cx="103.04" cy="42.5" rx="0.23" ry="0.71"/><ellipse class="cls-1" cx="109.02" cy="42.5" rx="0.7" ry="0.24"/><ellipse class="cls-1" cx="114.99" cy="42.5" rx="0.7" ry="0.24"/><ellipse class="cls-1" cx="170.73" cy="42.5" rx="0.7" ry="0.24"/><ellipse class="cls-1" cx="176.7" cy="42.5" rx="0.7" ry="0.24"/><ellipse class="cls-1" cx="103.04" cy="46.5" rx="0.23" ry="0.71"/><ellipse class="cls-1" cx="29.38" cy="141.5" rx="0.23" ry="0.71"/><ellipse class="cls-1" cx="35.36" cy="141.5" rx="0.23" ry="0.71"/><ellipse class="cls-1" cx="41.33" cy="141.5" rx="0.7" ry="0.24"/><ellipse class="cls-1" cx="47.3" cy="141.5" rx="0.23" ry="0.71"/><ellipse class="cls-1" cx="29.38" cy="48.5" rx="0.7" ry="0.24"/><ellipse class="cls-1" cx="60.24" cy="141.5" rx="0.23" ry="0.71"/><ellipse class="cls-1" cx="66.21" cy="141.5" rx="0.23" ry="0.71"/><ellipse class="cls-1" cx="170.73" cy="141.5" rx="0.23" ry="0.71"/><ellipse class="cls-1" cx="176.7" cy="141.5" rx="0.23" ry="0.71"/><ellipse class="cls-1" cx="35.36" cy="48.5" rx="0.7" ry="0.24"/><ellipse class="cls-1" cx="41.33" cy="48.5" rx="0.7" ry="0.24"/><ellipse class="cls-1" cx="47.3" cy="48.5" rx="0.7" ry="0.24"/><ellipse class="cls-1" cx="60.24" cy="48.5" rx="0.23" ry="0.71"/><ellipse class="cls-1" cx="66.21" cy="48.5" rx="0.7" ry="0.24"/><ellipse class="cls-1" cx="29.38" cy="147.5" rx="0.7" ry="0.24"/><ellipse class="cls-1" cx="35.36" cy="147.5" rx="0.23" ry="0.71"/><ellipse class="cls-1" cx="41.33" cy="147.5" rx="0.7" ry="0.24"/><ellipse class="cls-1" cx="47.3" cy="147.5" rx="0.7" ry="0.24"/><ellipse class="cls-1" cx="54.27" cy="147.5" rx="0.7" ry="0.24"/><ellipse class="cls-1" cx="60.24" cy="147.5" rx="0.7" ry="0.24"/><ellipse class="cls-1" cx="66.21" cy="147.5" rx="0.23" ry="0.71"/><ellipse class="cls-1" cx="72.19" cy="147.5" rx="0.23" ry="0.71"/><path class="cls-1" d="M78.76,147.09l-.69.82-.32-.32.82-.69Z"/><ellipse class="cls-1" cx="72.19" cy="48.5" rx="0.7" ry="0.24"/><ellipse class="cls-1" cx="78.16" cy="48.5" rx="0.7" ry="0.24"/><ellipse class="cls-1" cx="84.13" cy="48.5" rx="0.7" ry="0.24"/><ellipse class="cls-1" cx="91.1" cy="48.5" rx="0.23" ry="0.71"/><ellipse class="cls-1" cx="97.07" cy="48.5" rx="0.7" ry="0.24"/><ellipse class="cls-1" cx="103.04" cy="48.5" rx="0.23" ry="0.71"/><ellipse class="cls-1" cx="109.02" cy="48.5" rx="0.7" ry="0.24"/><ellipse class="cls-1" cx="114.99" cy="48.5" rx="0.23" ry="0.71"/><ellipse class="cls-1" cx="164.76" cy="48.5" rx="0.23" ry="0.71"/><ellipse class="cls-1" cx="170.73" cy="48.5" rx="0.23" ry="0.71"/><ellipse class="cls-1" cx="176.7" cy="48.5" rx="0.7" ry="0.24"/><ellipse class="cls-1" cx="29.38" cy="54.5" rx="0.23" ry="0.71"/><ellipse class="cls-1" cx="35.36" cy="54.5" rx="0.23" ry="0.71"/><ellipse class="cls-1" cx="35.36" cy="153.5" rx="0.23" ry="0.71"/><ellipse class="cls-1" cx="41.33" cy="153.5" rx="0.23" ry="0.71"/><ellipse class="cls-1" cx="47.3" cy="153.5" rx="0.7" ry="0.24"/><ellipse class="cls-1" cx="54.27" cy="153.5" rx="0.7" ry="0.24"/><ellipse class="cls-1" cx="60.24" cy="153.5" rx="0.7" ry="0.24"/><ellipse class="cls-1" cx="66.21" cy="153.5" rx="0.23" ry="0.71"/><ellipse class="cls-1" cx="72.19" cy="153.5" rx="0.7" ry="0.24"/><ellipse class="cls-1" cx="78.16" cy="153.5" rx="0.23" ry="0.71"/><ellipse class="cls-1" cx="84.13" cy="153.5" rx="0.7" ry="0.24"/><ellipse class="cls-1" cx="41.33" cy="54.5" rx="0.23" ry="0.71"/><ellipse class="cls-1" cx="47.3" cy="54.5" rx="0.7" ry="0.24"/><ellipse class="cls-1" cx="60.24" cy="54.5" rx="0.7" ry="0.24"/><ellipse class="cls-1" cx="66.21" cy="54.5" rx="0.7" ry="0.24"/><ellipse class="cls-1" cx="72.19" cy="54.5" rx="0.7" ry="0.24"/><ellipse class="cls-1" cx="78.16" cy="156.5" rx="0.23" ry="0.71"/><ellipse class="cls-1" cx="78.16" cy="54.5" rx="0.23" ry="0.71"/><ellipse class="cls-1" cx="84.13" cy="54.5" rx="0.7" ry="0.24"/><ellipse class="cls-1" cx="91.1" cy="54.5" rx="0.7" ry="0.24"/><ellipse class="cls-1" cx="97.07" cy="54.5" rx="0.23" ry="0.71"/><ellipse class="cls-1" cx="103.04" cy="54.5" rx="0.23" ry="0.71"/><path class="cls-1" d="M109.42,55.1l-.81-.69.31-.32.7.82Z"/><ellipse class="cls-1" cx="158.79" cy="54.5" rx="0.23" ry="0.71"/><ellipse class="cls-1" cx="35.36" cy="159.5" rx="0.7" ry="0.24"/><ellipse class="cls-1" cx="164.76" cy="54.5" rx="0.23" ry="0.71"/><ellipse class="cls-1" cx="66.21" cy="159.5" rx="0.7" ry="0.24"/><ellipse class="cls-1" cx="170.73" cy="54.5" rx="0.23" ry="0.71"/><ellipse class="cls-1" cx="176.7" cy="54.5" rx="0.7" ry="0.24"/><ellipse class="cls-1" cx="29.38" cy="60.5" rx="0.7" ry="0.24"/><ellipse class="cls-1" cx="35.36" cy="60.5" rx="0.7" ry="0.24"/><ellipse class="cls-1" cx="41.33" cy="60.5" rx="0.7" ry="0.24"/><ellipse class="cls-1" cx="29.38" cy="166.5" rx="0.23" ry="0.71"/><ellipse class="cls-1" cx="35.36" cy="166.5" rx="0.23" ry="0.71"/><ellipse class="cls-1" cx="41.33" cy="166.5" rx="0.7" ry="0.24"/><ellipse class="cls-1" cx="47.3" cy="166.5" rx="0.23" ry="0.71"/><ellipse class="cls-1" cx="54.27" cy="166.5" rx="0.23" ry="0.71"/><ellipse class="cls-1" cx="60.24" cy="166.5" rx="0.7" ry="0.24"/><ellipse class="cls-1" cx="66.21" cy="166.5" rx="0.23" ry="0.71"/><ellipse class="cls-1" cx="72.19" cy="166.5" rx="0.23" ry="0.71"/><ellipse class="cls-1" cx="78.16" cy="166.5" rx="0.7" ry="0.24"/><ellipse class="cls-1" cx="84.13" cy="166.5" rx="0.7" ry="0.24"/><ellipse class="cls-1" cx="91.1" cy="166.5" rx="0.7" ry="0.24"/><ellipse class="cls-1" cx="97.07" cy="166.5" rx="0.23" ry="0.71"/><ellipse class="cls-1" cx="103.04" cy="166.5" rx="0.23" ry="0.71"/><ellipse class="cls-1" cx="109.02" cy="166.5" rx="0.23" ry="0.71"/><ellipse class="cls-1" cx="47.3" cy="60.5" rx="0.7" ry="0.24"/><ellipse class="cls-1" cx="60.24" cy="60.5" rx="0.23" ry="0.71"/><ellipse class="cls-1" cx="66.21" cy="60.5" rx="0.7" ry="0.24"/><ellipse class="cls-1" cx="72.19" cy="60.5" rx="0.23" ry="0.71"/><ellipse class="cls-1" cx="78.16" cy="60.5" rx="0.7" ry="0.24"/><ellipse class="cls-1" cx="84.13" cy="60.5" rx="0.23" ry="0.71"/><ellipse class="cls-1" cx="91.1" cy="60.5" rx="0.7" ry="0.24"/><ellipse class="cls-1" cx="97.07" cy="60.5" rx="0.23" ry="0.71"/><ellipse class="cls-1" cx="145.85" cy="60.5" rx="0.23" ry="0.71"/><ellipse class="cls-1" cx="158.79" cy="60.5" rx="0.23" ry="0.71"/><ellipse class="cls-1" cx="164.76" cy="60.5" rx="0.23" ry="0.71"/><ellipse class="cls-1" cx="170.73" cy="60.5" rx="0.23" ry="0.71"/><ellipse class="cls-1" cx="176.7" cy="60.5" rx="0.23" ry="0.71"/><ellipse class="cls-1" cx="29.38" cy="66.5" rx="0.23" ry="0.71"/><ellipse class="cls-1" cx="35.36" cy="66.5" rx="0.23" ry="0.71"/><ellipse class="cls-1" cx="47.3" cy="66.5" rx="0.7" ry="0.24"/><ellipse class="cls-1" cx="60.24" cy="66.5" rx="0.7" ry="0.24"/><ellipse class="cls-1" cx="72.19" cy="66.5" rx="0.23" ry="0.71"/><ellipse class="cls-1" cx="78.16" cy="66.5" rx="0.23" ry="0.71"/><ellipse class="cls-1" cx="97.07" cy="66.5" rx="0.7" ry="0.24"/><ellipse class="cls-1" cx="145.85" cy="66.5" rx="0.7" ry="0.24"/><ellipse class="cls-1" cx="158.79" cy="66.5" rx="0.23" ry="0.71"/><ellipse class="cls-1" cx="47.3" cy="73.5" rx="0.23" ry="0.71"/><ellipse class="cls-1" cx="60.24" cy="73.5" rx="0.23" ry="0.71"/><ellipse class="cls-1" cx="66.21" cy="73.5" rx="0.7" ry="0.24"/><ellipse class="cls-1" cx="72.19" cy="73.5" rx="0.23" ry="0.71"/><ellipse class="cls-1" cx="78.16" cy="73.5" rx="0.7" ry="0.24"/><ellipse class="cls-1" cx="91.1" cy="73.5" rx="0.7" ry="0.24"/><ellipse class="cls-1" cx="127.93" cy="73.5" rx="0.7" ry="0.24"/><ellipse class="cls-1" cx="133.9" cy="73.5" rx="0.23" ry="0.71"/><ellipse class="cls-1" cx="139.87" cy="73.5" rx="0.23" ry="0.71"/><ellipse class="cls-1" cx="145.85" cy="73.5" rx="0.7" ry="0.24"/><ellipse class="cls-1" cx="158.79" cy="73.5" rx="0.23" ry="0.71"/><ellipse class="cls-1" cx="164.76" cy="73.5" rx="0.23" ry="0.71"/><ellipse class="cls-1" cx="170.73" cy="73.5" rx="0.7" ry="0.24"/><ellipse class="cls-1" cx="176.7" cy="73.5" rx="0.7" ry="0.24"/><ellipse class="cls-1" cx="53.27" cy="79.5" rx="0.23" ry="0.71"/><ellipse class="cls-1" cx="60.24" cy="79.5" rx="0.23" ry="0.71"/><ellipse class="cls-1" cx="66.21" cy="79.5" rx="0.7" ry="0.24"/><path class="cls-1" d="M138.79,133.3c-1.11,3.25-2,5.69-4.15,7.45C135.34,138.19,135.93,135.57,138.79,133.3Z"/><path class="cls-1" d="M164.26,143c-.9,2.58-1.27,5.46-4,7C161.18,147.42,161.55,144.54,164.26,143Z"/><path class="cls-1" d="M67.12,95.3C66,98.55,65.1,101,63,102.75,63.67,100.19,64.26,97.57,67.12,95.3Z"/><path class="cls-1" d="M26,68.65c-.25,2.38-1.08,4-2.85,5.09A6.45,6.45,0,0,1,26,68.65Z"/><path class="cls-1" d="M54.86,83.65c-.24,2.38-1.08,4-2.84,5.09A6.47,6.47,0,0,1,54.86,83.65Z"/><path class="cls-1" d="M101.9,110.67l-1.79,4.52C99,113,99.75,111.82,101.9,110.67Z"/><path class="cls-1" d="M96.93,108.67l-1.8,4.52C94,111,94.78,109.82,96.93,108.67Z"/><path class="cls-1" d="M168.6,146.67l-1.8,4.52C165.66,149,166.45,147.82,168.6,146.67Z"/><path class="cls-1" d="M63.11,92.25l-2,3.08C60.29,93,61.62,92.58,63.11,92.25Z"/><path class="cls-1" d="M57.63,88.5v3.33l-1.88.25Z"/><path class="cls-1" d="M134.78,130.25l-2,3.08C132,131,133.29,130.58,134.78,130.25Z"/><path class="cls-1" d="M105.57,115l-.15,2-1.9-.12L105,114.5Z"/><path class="cls-1" d="M172.26,151l-.15,2-1.9-.12,1.52-2.36Z"/><path class="cls-1" d="M28.89,75c.14-.76-.5-1.91,1-2C29.73,73.76,30.37,74.91,28.89,75Z"/><path class="cls-1" d="M67.71,94c-.15.76.49,1.91-1,2C66.86,95.24,66.22,94.09,67.71,94Z"/><path class="cls-1" d="M72.68,96c.15-.76-.49-1.91,1-2C73.53,94.76,74.17,95.91,72.68,96Z"/><path class="cls-1" d="M71.69,98c.15-.76-.5-1.91,1-2C72.53,96.76,73.18,97.91,71.69,98Z"/><path class="cls-1" d="M70.54,100.42,71.22,98a7.27,7.27,0,0,1,.43,1.4C71.67,99.54,71.3,99.74,70.54,100.42Z"/><path class="cls-1" d="M75.52,102.42,76.2,100a8.05,8.05,0,0,1,.43,1.4C76.65,101.54,76.28,101.74,75.52,102.42Z"/><path class="cls-1" d="M80.65,104c.15-.76-.5-1.91,1-2C81.49,102.76,82.14,103.91,80.65,104Z"/><path class="cls-1" d="M96.57,109c.15-.76-.49-1.91,1-2C97.42,107.76,98.06,108.91,96.57,109Z"/><path class="cls-1" d="M88.61,112c.15-.76-.49-1.91,1-2C89.46,110.76,90.1,111.91,88.61,112Z"/><path class="cls-1" d="M88.61,112c-.15.76.49,1.91-1,2C87.76,113.24,87.12,112.09,88.61,112Z"/><path class="cls-1" d="M105.53,115c.15-.76-.49-1.91,1-2C106.38,113.76,107,114.91,105.53,115Z"/><path class="cls-1" d="M111.5,115c-.15.76.5,1.91-1,2C110.66,116.24,110,115.09,111.5,115Z"/><path class="cls-1" d="M109.51,119c.15-.76-.49-1.91,1-2C110.36,117.76,111,118.91,109.51,119Z"/><path class="cls-1" d="M115.49,119c.15-.76-.5-1.91,1-2C116.33,117.76,117,118.91,115.49,119Z"/><path class="cls-1" d="M115.49,119c-.15.76.49,1.91-1,2C114.64,120.24,114,119.09,115.49,119Z"/><path class="cls-1" d="M113.5,123c.15-.76-.5-1.91,1-2C114.34,121.76,115,122.91,113.5,123Z"/><path class="cls-1" d="M112.5,125c.15-.76-.49-1.91,1-2C113.35,123.76,114,124.91,112.5,125Z"/><path class="cls-1" d="M118.32,125.42,119,123a7.27,7.27,0,0,1,.43,1.4C119.45,124.54,119.08,124.74,118.32,125.42Z"/><path class="cls-1" d="M67.71,94c.15-.76-.5-1.91,1-2C68.55,92.76,69.2,93.91,67.71,94Z"/><path class="cls-1" d="M111.5,127c.15-.76-.49-1.91,1-2C112.35,125.76,113,126.91,111.5,127Z"/><path class="cls-1" d="M135.39,128c-.15.76.5,1.91-1,2C134.55,129.24,133.91,128.09,135.39,128Z"/><path class="cls-1" d="M139.38,132c.15-.76-.5-1.91,1-2C140.22,130.76,140.86,131.91,139.38,132Z"/><path class="cls-1" d="M138.38,134c.15-.76-.49-1.91,1-2C139.23,132.76,139.87,133.91,138.38,134Z"/><path class="cls-1" d="M144.35,134c.15-.76-.49-1.91,1-2C145.2,132.76,145.84,133.91,144.35,134Z"/><path class="cls-1" d="M62.73,92c.15-.76-.49-1.91,1-2C63.57,90.76,64.22,91.91,62.73,92Z"/><path class="cls-1" d="M144.35,134c-.15.76.5,1.91-1,2C143.51,135.24,142.86,134.09,144.35,134Z"/><path class="cls-1" d="M42.82,83c-.15.76.49,1.91-1,2C42,84.24,41.33,83.09,42.82,83Z"/><path class="cls-1" d="M142.19,138.47c.36-1.26.53-1.87.7-2.47a7.27,7.27,0,0,1,.43,1.4C143.35,137.55,143,137.75,142.19,138.47Z"/><path class="cls-1" d="M149.33,136c-.15.76.49,1.91-1,2C148.48,137.24,147.84,136.09,149.33,136Z"/><path class="cls-1" d="M147.19,140.42l.68-2.42a8.05,8.05,0,0,1,.43,1.4C148.32,139.54,148,139.74,147.19,140.42Z"/><path class="cls-1" d="M153.31,140c-.15.76.5,1.91-1,2C152.47,141.24,151.82,140.09,153.31,140Z"/><path class="cls-1" d="M156.14,146.42c.35-1.21.52-1.82.69-2.42a9,9,0,0,1,.43,1.4C157.28,145.54,156.91,145.74,156.14,146.42Z"/><path class="cls-1" d="M169.24,145c-.15.76.49,1.91-1,2C168.39,146.24,167.75,145.09,169.24,145Z"/><path class="cls-1" d="M40.83,87c.15-.76-.49-1.91,1-2C41.68,85.76,42.32,86.91,40.83,87Z"/><path class="cls-1" d="M172.22,151c.15-.76-.49-1.91,1-2C173.07,149.76,173.71,150.91,172.22,151Z"/><path class="cls-1" d="M160.28,150c-.15.76.49,1.91-1,2C159.43,151.24,158.79,150.09,160.28,150Z"/><path class="cls-1" d="M27.74,77.42,28.42,75a8.05,8.05,0,0,1,.43,1.4C28.87,76.54,28.5,76.74,27.74,77.42Z"/><path class="cls-1" d="M178.2,151c-.15.76.49,1.91-1,2C177.35,152.24,176.71,151.09,178.2,151Z"/><path class="cls-1" d="M34.86,75c-.15.76.49,1.91-1,2C34,76.24,33.37,75.09,34.86,75Z"/><path class="cls-1" d="M158.13,154.42l.69-2.42a8.05,8.05,0,0,1,.43,1.4C159.27,153.54,158.9,153.74,158.13,154.42Z"/><path class="cls-1" d="M183.17,153c-.15.76.5,1.91-1,2C182.33,154.24,181.68,153.09,183.17,153Z"/><path class="cls-1" d="M181.18,157c.15-.76-.49-1.91,1-2C182,155.76,182.67,156.91,181.18,157Z"/><path class="cls-1" d="M32.71,79.42,33.4,77a9,9,0,0,1,.43,1.4C33.85,78.54,33.47,78.74,32.71,79.42Z"/><path class="cls-1" d="M38.84,79c.15-.76-.49-1.91,1-2C39.68,77.76,40.33,78.91,38.84,79Z"/><path class="cls-1" d="M38.84,79c-.15.76.49,1.91-1,2C38,80.24,37.35,79.09,38.84,79Z"/><path class="cls-1" d="M46.65,87.42,47.33,85a7.27,7.27,0,0,1,.43,1.4C47.78,86.54,47.41,86.74,46.65,87.42Z"/><path class="cls-1" d="M176.21,155c.15-.76-.5-1.91,1-2C177.05,153.76,177.7,154.91,176.21,155Z"/><path class="cls-1" d="M40.83,87c-.15.76.49,1.91-1,2C40,88.24,39.34,87.09,40.83,87Z"/><path class="cls-1" d="M38,81.09l-.7.82-.31-.32.81-.69Z"/><path class="cls-1" d="M58.75,88l-1,1Z"/><path class="cls-1" d="M39.94,89.09l-.7.82-.31-.32.81-.69Z"/><path class="cls-1" d="M80.75,104.09l-.69.82-.32-.32.82-.69Z"/><path class="cls-1" d="M85.73,106.09l-.7.82-.31-.32.81-.69Z"/><path class="cls-1" d="M87.72,114.09l-.7.82-.31-.32.81-.69Z"/><path class="cls-1" d="M109.62,119.09l-.7.82-.31-.32.81-.69Z"/><path class="cls-1" d="M111.61,127.09l-.7.82-.31-.32.81-.69Z"/><path class="cls-1" d="M128.53,129.09l-.69.82-.32-.32.82-.69Z"/><path class="cls-1" d="M149.33,136l1-1Z"/><path class="cls-1" d="M152.42,142.09l-.69.82-.32-.32.82-.69Z"/><path class="cls-1" d="M176.31,155.09l-.69.82-.32-.32.82-.69Z"/><path class="cls-1" d="M181.29,157.09l-.7.82-.31-.32.81-.69Z"/></g></g></svg>