<svg xmlns="http://www.w3.org/2000/svg" viewBox="0 0 416.43 412.57"><defs><style>.cls-1{fill:#fff;}</style></defs><g id="Layer_2" data-name="Layer 2"><g id="Layer_1-2" data-name="Layer 1"><path class="cls-1" d="M258.7,234.76c5.78,1.84,10.89.7,16-.07,13.64-2,22.68-11,31.72-20.4,17.41-18,35.16-35.74,52.75-53.61,8.46-8.6,16.75-17.38,25.33-25.86A174.85,174.85,0,0,1,398,123.09c3.79-3,9-2.15,12.37,1.72a8.81,8.81,0,0,1-.32,11.87c-11.72,11.92-23.54,23.73-35.35,35.56-17.81,17.82-35.55,35.7-53.49,53.38-7.08,7-14.16,14.13-22.1,20.07-7.54,5.64-16.24,9.73-24.37,14.6Q230.76,286.63,186.83,313c-16.47,9.85-33,19.55-49.54,29.35-4.6,2.73-9.15,5.56-13.73,8.32-8,4.8-16.87,1.9-20.37-6.68-6.7-16.42-18.12-28.09-34.63-34.75-9-3.63-12-11.8-7.07-20.13,9.91-16.88,20-33.63,30.07-50.43q17.91-30,35.83-60c11.2-18.71,23.1-37,33.51-56.18,8.28-15.22,20.92-26.23,32.71-38.14C219,58.65,244.69,33.17,270.26,7.6,271.49,6.37,272.8,5.21,274,4c4.74-4.83,10.38-5.29,14.48-1.16,3.8,3.84,3.19,9.55-1.5,14.26q-16.63,16.7-33.27,33.38c-19.3,19.32-38.71,38.53-57.86,58a135.19,135.19,0,0,0-15.06,18c-4.69,6.84-5,15-4.18,23.11a21.12,21.12,0,0,0,1.3,3.75c3.28-3.13,6.16-5.79,8.95-8.55q30.76-30.6,61.51-61.25,26.46-26.43,52.83-53c4.22-4.25,10.24-4.7,14-.94s3.66,9.5-.53,13.7q-37.56,37.59-75.17,75.11c-17.8,17.84-35.64,35.64-53.16,53.74-15.65,16.15-12.66,43.43,5.44,56.73,15.37,11.29,37.24,8.87,51.22-5.13,27.5-27.54,54.83-55.25,82.33-82.79,14.45-14.46,29.11-28.71,43.67-43.05,4.34-4.27,9.68-4.63,13.63-.92s3.73,9.49-.43,13.68Q347,146.25,311.6,181.77c-16.94,16.94-34,33.72-51.05,50.59A26.33,26.33,0,0,0,258.7,234.76Zm-99.11-73.82L82.07,290.69c19.74,7.13,32.86,19.9,39.43,39.57l130-77.61-9.81-4.2.07,1c-7.84,1.77-15.61,4-23.54,5.19-8.27,1.21-16.39-.56-24.2-3.51a51.55,51.55,0,0,1-20.19-13.2c-18.45-20.1-20.59-42.78-9.86-67.28Z"/><path class="cls-1" d="M21.76,403.25h8.87l376.29,0a28.37,28.37,0,0,1,5.22.23c2.57.5,4.4,2.09,4.28,4.88s-2.34,3.87-4.89,4.13c-1,.1-2,0-3,0H0c2.45-5.35,4.54-10.07,6.76-14.73,7.52-15.75,15.11-31.47,22.63-47.22,4.72-9.91,12.22-16,23.37-16.77,17.56-1.2,29.91,15.5,24.27,32.67-2.49,7.56-7.76,12.62-14.8,16q-18.72,9-37.45,17.88c-1.1.52-2.14,1.17-3.2,1.75Z"/></g></g></svg>