<svg xmlns="http://www.w3.org/2000/svg" viewBox="0 0 153.17 88.46"><defs><style>.cls-1{fill:#fff;}</style></defs><g id="Layer_2" data-name="Layer 2"><g id="Layer_1-2" data-name="Layer 1"><path class="cls-1" d="M19.65,12.9,4.06,0H146.47c-.38.61.06-.23.11.43a.59.59,0,0,1-.1.46c-1.36,1.21-2.69,2.45-4.11,3.6Q115,26.63,87.55,48.76a2.5,2.5,0,0,0-2.17,1.84l-3.72,2.33a2.49,2.49,0,0,0-2.33,1.44C74.6,55.45,70.74,54,67,51,52,38.76,36.85,26.77,21.76,14.71,21.65,13.42,21,12.75,19.65,12.9Z"/><path class="cls-1" d="M57.71,52.38a50.79,50.79,0,0,0,9.53,7.1c6.39,3.84,12.6,3.28,18.56-1,4.17-3,8.27-6,12.86-9.33,16.36,12.34,32,25.72,48.88,39.27H3.89l7.74-6.22a2.23,2.23,0,0,0,2.13-1.76l27-21.69c3.85-3.11,7.71-6.21,11.23-9,1.76-.6,2.56.51,3.59.92A2.39,2.39,0,0,0,57.71,52.38Z"/><path class="cls-1" d="M152.07,82.89,104.32,44.36c16.08-13,31.92-25.85,47.76-38.67,1.11.53,1.07,1.55,1.07,2.55q0,35.78,0,71.55C153.17,81,153.24,82.14,152.07,82.89Z"/><path class="cls-1" d="M85.38,50.6a2.5,2.5,0,0,1,2.17-1.84A1.88,1.88,0,0,1,85.38,50.6Z"/><path class="cls-1" d="M57.71,52.38a2.39,2.39,0,0,1-2.16-1.71A1.86,1.86,0,0,1,57.71,52.38Z"/><path class="cls-1" d="M79.33,54.37a2.49,2.49,0,0,1,2.33-1.44C81.31,54.1,80.63,54.73,79.33,54.37Z"/><path class="cls-1" d="M13.76,80.48a2.23,2.23,0,0,1-2.13,1.76A1.87,1.87,0,0,1,13.76,80.48Z"/><path class="cls-1" d="M19.65,12.9c1.36-.15,2,.52,2.11,1.81A3.11,3.11,0,0,1,19.65,12.9Z"/><path class="cls-1" d="M1.1,5.69,48.85,44.22c-16.09,13-31.93,25.84-47.76,38.67C0,82.35,0,81.33,0,80.34Q0,44.57,0,8.78C0,7.63-.07,6.43,1.1,5.69Z"/></g></g></svg>