<svg xmlns="http://www.w3.org/2000/svg" viewBox="0 0 744.11 744.12"><defs><style>.cls-1{fill:#fff;}</style></defs><g id="Layer_2" data-name="Layer 2"><g id="Layer_1-2" data-name="Layer 1"><path class="cls-1" d="M731.16,696c9.19,17.64-2.9,34.58-17.17,37.58-9.25,1.94-17.53-.2-24.42-6.81-4.57-4.38-9-8.89-13.48-13.36L520,557.35c-4.47-4.47-8.91-9-13.41-13.43-4-4-6.26-4.14-10.78-.57A312.57,312.57,0,0,1,445.74,576a303.63,303.63,0,0,1-73.85,27.07l-1.63-1.83c-.28.09-.77.12-.83.29-.68,2.06-2.29,2.6-4.22,2.88-8.22,1.18-16.42,2.55-24.66,3.64-25.21,3.32-50.4,2.81-75.6-.39a300.64,300.64,0,0,1-134.38-52.42,306.47,306.47,0,0,1-90-98.2A302.53,302.53,0,0,1,.69,284.58,296.57,296.57,0,0,1,28.19,177,305.94,305.94,0,0,1,89.07,89.91a300.17,300.17,0,0,1,67.31-51.2A306.69,306.69,0,0,1,272.89,1.6a318.24,318.24,0,0,1,58.81-.46,297.85,297.85,0,0,1,69.69,14.21,300.94,300.94,0,0,1,96.87,53.49,307.75,307.75,0,0,1,65.15,73.76,301.76,301.76,0,0,1,40.46,99.23,246.11,246.11,0,0,1,5.58,41c.44,10.47,1.23,21,.73,31.41-.62,12.92-2.25,25.81-3.74,38.67-2.16,18.59-7.25,36.5-13.5,54.07a306.39,306.39,0,0,1-49,88.16,59.63,59.63,0,0,0-3.8,6.28,71.38,71.38,0,0,0,4.7,5.89q27.48,27.6,55,55.11,62,62,123.89,124c2.87,2.87,5,6.49,7.45,9.77-.24.92-.48,1.84-.73,2.76l.78.08ZM606.59,594.41l.25.19-.33-.11-1-1-.18-.31.27.23Zm-354.76-5.94.2.13-.31-.12,0-.17Zm103-30.87.11-.1.08.29Zm159-38.19-.2,0,.33.08.51,2.16.2.15-.3-.19Zm-45-14.12,0,.71-.14-.6Zm79.82,52.22.11-.07.33,2.18.71-.29ZM579.4,364v-.63l.09.52,1.25,1.95.8-.9Zm-18.83,21.73,0-.14.14.05.94,4,1.31-.6C562.13,388,561.35,386.87,560.57,385.75Zm-6.88,80.69.23.6-.34-.5v-7.66l-1.39.18ZM305.36,52.73C165.94,53,53.17,165.41,52.91,304.7,52.66,443,163.89,557,304.59,557.44A251.74,251.74,0,0,0,557.55,306C558.1,165.48,444.54,53,305.36,52.73Zm248.73,359.9c3.09-5.83-2.82-6.81-5.18-10.85-.24,1.73-.35,2.48-.44,3.12l5.19,3.3C553.82,409.86,554,411.24,554.09,412.63ZM286.17,604.15l1-.36c-.37-1.4-.75-2.8-1.14-4.25l-8.35-2c-.1.38-.2.75-.31,1.13l6.8,2.07C284.94,602.09,285.56,603.12,286.17,604.15Zm5.08-1.21c1.81,3.56,5.07,3.31,8.36,3Zm437.3,117.11-5.44-2.87C724.21,721.62,724.21,721.62,728.55,720.05ZM273.63,597.38c.17-.32.33-.64.49-1a7.86,7.86,0,0,0-7.54-1.43Zm272-186.83-.21,1.38,2.93.18.09-.95ZM469.42,515c.47-2.27-.48-3.14-2.41-3.76C466.48,513.55,467.41,514.44,469.42,515Zm71.5-109.34,1.09,0a4.44,4.44,0,0,0,.32-1.74c-.14-.58-.68-1.05-1.66-2.45C540.8,403.59,540.86,404.63,540.92,405.66Zm-27.17,96.58-1,.07c.18,1,.37,1.94.56,2.91l1-.21C514.1,504.09,513.92,503.17,513.75,502.24Zm40.87-71.43-.78.19c.14.67.28,1.35.43,2l.87-.2ZM448.86,562.89l-1.21.17.57,2.61.93-.17Zm143.62,56.59-1.11-.63-.66,1.75.71.38ZM552.87,440.67l.87-.5-1.18-1.52L552,439Zm-3.14,99.22.87-.06-.16-2.91-.94.06ZM586.9,396.23l.43-.19-.52-1.32-.55.24C586.47,395.39,586.69,395.81,586.9,396.23ZM259.82,591.73l.57-.58-1.52-1.49-.59.61ZM551.29,520h-.37v1.62h.37ZM149.83,100.5c-.38-.42-.19-.22,0,0C149.77,100.23,149.71,100,149.83,100.5ZM506.22,526.25l-.67.19.48,1.37.56-.18C506.47,527.17,506.35,526.71,506.22,526.25Zm-35.75-3.71-.62.06.17,1.54.56,0C470.55,523.57,470.51,523.06,470.47,522.54Zm-22.77,32.9-1.05.14c.16.71.32,1.43.47,2.14l.71-.1C447.79,556.89,447.75,556.16,447.7,555.44Zm41.19-63.69.69-.07c-.06-.53-.11-1.06-.17-1.59l-.65.05Zm66.39-20.54L555,471v.42ZM238.39,580.57c-.14-.05-.31-.19-.41-.15s-.13.26-.2.39c.14.06.31.19.41.15S238.32,580.71,238.39,580.57Zm352.94,29.31.42-.23-.52-1-.46.26ZM303.64,607Zm29.47.21ZM501.4,470.44h-.29v1.08h.29Zm-26,53.92-.34,0,.14.42ZM114.61,92.58l-.06.73C114.58,93.07,114.6,92.82,114.61,92.58Zm2.48,8.86.3.22.08-.31ZM729.84,707.91l.19-.63c-.11,0-.31.06-.31.1A2,2,0,0,0,729.84,707.91ZM551.33,418.16l-.22-.15,0,.24ZM220.25,13.61l.29.18,0-.31Z"/><path class="cls-1" d="M693.35,736.62c2.21.59,4.41,1.19,6.63,1.76a31.72,31.72,0,0,0,38.75-38.07c-.37-1.61-.91-3.19-1.37-4.78l-.06.11c6.27,6.31,7.66,14.26,6.38,22.47-3.54,22.79-28.3,33.31-47.52,20.44-1-.64-1.87-1.37-2.79-2.06Z"/><path class="cls-1" d="M136.14,565.58l2.82,2,.1-.1-2.82-2Z"/><path class="cls-1" d="M142.22,569.45l-3.16-2-.1.1,3.16,2Z"/><path class="cls-1" d="M579.46,159.22l1,2,.07-.09-1-2Z"/><path class="cls-1" d="M579.55,159.1l-1-2-.09.1c.32.67.65,1.35,1,2Z"/><path class="cls-1" d="M577.55,155.17l.94,2,.09-.1-.94-2Z"/><path class="cls-1" d="M577.64,155.07l-.81-2.13-.12.09.84,2.14Z"/><path class="cls-1" d="M574.55,150.15c.29.6.59,1.2.88,1.81l.11-.1c-.3-.6-.6-1.21-.89-1.81Z"/><path class="cls-1" d="M737.36,695.53l-.06.11Z"/><path class="cls-1" d="M574.65,150.05l-.82-2.09-.11.08c.28.71.55,1.41.83,2.11Z"/><path class="cls-1" d="M571.7,145l.72,2,.11-.09-.79-1.87Z"/><path class="cls-1" d="M127.08,559.74l1.91.65.1-.1-1.91-.66Z"/><polygon class="cls-1" points="569.54 141.93 569.38 141.73 569.5 141.94 569.54 141.93"/><polygon class="cls-1" points="122.03 555.51 121.94 555.23 121.94 555.48 122.03 555.51"/><path class="cls-1" d="M569.5,141.94l.12.26-.08-.27Z"/><path class="cls-1" d="M121.94,555.48l.2.21-.11-.17Z"/><path class="cls-1" d="M126,558.38l-.11.1Z"/><path class="cls-1" d="M571.74,145l0-.29-.25.15.26.14Z"/><path class="cls-1" d="M573.83,148l-1.3-1.12-.11.09,1.3,1.11Z"/><path class="cls-1" d="M125.92,558.48l1.16,1.26.1-.11L126,558.38Z"/><path class="cls-1" d="M575.43,152l1.28,1.07.12-.09-1.29-1.08Z"/><path class="cls-1" d="M130,561.59l-.86-1.3-.1.1.86,1.14Z"/><path class="cls-1" d="M129.85,561.53l.16.24-.06-.18Z"/><path class="cls-1" d="M133,563.43l-.09.07Z"/><polygon class="cls-1" points="132.91 563.5 133.14 563.57 133.01 563.43 132.91 563.5"/><path class="cls-1" d="M136.24,565.48l-.1.1Z"/><polygon class="cls-1" points="693.37 736.49 693.32 736.33 693.35 736.62 693.37 736.49"/><path class="cls-1" d="M371.89,304.7q0-68.17,0-136.34c0-3.55.08-6.94,2.75-9.78a11.28,11.28,0,0,1,8.88-3.69c9.82.1,19.65,0,29.47,0q14.23,0,28.47,0c10.5,0,14.12,3.61,14.12,14.05q0,119.87,0,239.73c0,11.15-.31,22.32.1,33.46.29,7.75-4.82,13.62-13.56,13.45-19.31-.39-38.62-.16-57.94-.1a12.22,12.22,0,0,1-9.09-3.32c-2.58-2.52-3.23-5.64-3.22-9.11.06-16.49,0-33,0-49.45Z"/><path class="cls-1" d="M331.66,351.31q0,43.43,0,86.85c0,2,0,4,0,6-.28,6.9-4.46,11.09-11.35,11.28-3.65.1-7.32,0-11,0-16.3,0-32.61,0-48.91,0-8.15,0-12.35-4.05-12.39-12.2-.1-19.46,0-38.93,0-58.39,0-40.6.17-81.2-.14-121.79-.08-10.79,3.77-15.64,15.44-15.35,18,.45,35.93.12,53.9.13,1.5,0,3,0,4.49.11a10.57,10.57,0,0,1,9.91,10c.22,3.48.11,7,.11,10.48Q331.67,309.89,331.66,351.31Z"/><path class="cls-1" d="M124.1,398q0-22.71,0-45.44c0-3.09.51-5.85,2.78-8.24a11.36,11.36,0,0,1,8.95-3.52c12.48.06,25,0,37.45,0,7.16,0,14.33.27,21.48-.07,9.33-.45,13.5,6.23,13.06,13.28-.29,4.64,0,9.32,0,14q0,36,0,71.92c0,1.33,0,2.66,0,4-.42,7.38-4.74,11.54-12.2,11.56q-27.47.06-54.93,0c-1.83,0-3.67,0-5.5,0-6.75-.28-10.87-4.23-10.93-11-.12-15.48,0-31,0-46.45Z"/><path class="cls-1" d="M460.87,161.19a17.81,17.81,0,0,1,4.55,12.66q0,101.37,0,202.73,0,34.44,0,68.9c0,1.49.05,3,0,4.49-.42,9-6.15,14.92-15.17,15.33-5.15.24-10.32.05-15.47.05q-22.23,0-44.45,0c-4.79,0-9.07-1.19-12.58-4.73,21.65,0,43.06.09,64.47,0,12.4-.07,18.65-6.5,18.67-19q.08-57.91,0-115.84,0-77.64,0-155.29Z"/><path class="cls-1" d="M212.91,347.9c2.6,1.16,3.46,3.51,3.83,6a58.27,58.27,0,0,1,.74,8.43q.08,41.42,0,82.82c0,1.66,0,3.33-.17,5-1,10.13-6.49,15.17-16.69,15.21-12.8,0-25.61,0-38.41,0-7,0-14,0-21,0-5.14-.05-8-1.42-10.88-4.7h63c4.21,0,8.25-.47,12-2.76a14.25,14.25,0,0,0,7-9.85,32,32,0,0,0,.62-5.93q.07-47.14.07-94.3Z"/><path class="cls-1" d="M341.2,400.33l-4.36,6.26V255l-.09.09c2.65,1.09,3.47,3.48,3.92,5.93a42,42,0,0,1,.71,7.42q.08,61,.05,122.09c0,3.31-.18,6.61-.28,9.92Z"/><path class="cls-1" d="M253.12,459.56a97,97,0,0,0,9.88,1q26.67.17,53.36.05c3.63,0,7.25-.59,9.87-.82,8.56-4.39,10.93-11.07,10.79-19.14-.09-5.82.12-11.64,0-17.45-.22-8,1.58-15.49,4.22-22.89l-.05.07c.1,4.48.28,9,.29,13.45q.06,17.44,0,34.9c-.05,10.22-5.69,16.3-15.91,16.42-20.11.24-40.22.23-60.32.12-4.69,0-9.27-1.12-12-5.7Z"/><path class="cls-1" d="M442.73,99.93,437.68,97l-.11.11,5.06,2.9Z"/><path class="cls-1" d="M442.63,100l3,1.91.1-.11-3-1.91Z"/><path class="cls-1" d="M95.07,434.56l-.94-1.8-.1.1.94,1.77Z"/><path class="cls-1" d="M90.13,425.56l.1-.09Z"/><path class="cls-1" d="M336.84,255l-.09.09Z"/><path class="cls-1" d="M212.13,345.74l.78,2.16.09-.08-.78-2.08Z"/><path class="cls-1" d="M448.76,103.81l-2-.66-.1.12,2,.64Z"/><path class="cls-1" d="M100.06,442.62l-.77-2h-.06l.79,2Z"/><path class="cls-1" d="M449.73,105.22l1.93.68.1-.11-1.93-.69Z"/><path class="cls-1" d="M94.13,432.76l-.74-2.14-.11,0,.75,2.21Z"/><path class="cls-1" d="M445.67,102l1,1.32.1-.12-1-1.31Z"/><path class="cls-1" d="M449.83,105.1l-1.07-1.29-.11.1,1.08,1.31Z"/><path class="cls-1" d="M451.66,105.9l.83,1.12.11,0-.84-1.25Z"/><polygon class="cls-1" points="452.49 107.02 452.81 107.17 452.6 107.04 452.49 107.02"/><polygon class="cls-1" points="455.67 108.85 455.45 108.67 455.58 108.93 455.67 108.85"/><path class="cls-1" d="M456.7,110.1l-1-1.25-.09.08,1.09,1.09Z"/><path class="cls-1" d="M456.67,110l.09.35-.06-.27Z"/><polygon class="cls-1" points="212.22 345.74 211.95 345.53 212.13 345.74 212.22 345.74"/><polygon class="cls-1" points="93.39 430.62 93.1 430.51 93.28 430.65 93.39 430.62"/><path class="cls-1" d="M95,434.63l.1-.07Z"/><polygon class="cls-1" points="97.08 437.54 96.93 437.41 97.03 437.58 97.08 437.54"/><polygon class="cls-1" points="97.03 437.58 97.28 437.77 97.08 437.54 97.03 437.58"/><path class="cls-1" d="M99.29,440.65l-.1-.28,0,.27Z"/><path class="cls-1" d="M100,442.62l.07.27,0-.27Z"/><path class="cls-1" d="M107.09,452.67v0Z"/><path class="cls-1" d="M107.09,452.62l.07.33-.07-.28Z"/><polygon class="cls-1" points="253.24 459.58 252.9 459.44 253.12 459.56 253.24 459.58"/></g></g></svg>