<svg xmlns="http://www.w3.org/2000/svg" viewBox="0 0 144.08 108.92"><defs><style>.cls-1{fill:#fff;}</style></defs><g id="Layer_2" data-name="Layer 2"><g id="Layer_1-2" data-name="Layer 1"><path class="cls-1" d="M71.93,108.9H5.28a9.68,9.68,0,0,1-1.79-.12,4.1,4.1,0,0,1-3.43-4.16c0-2.87,0-5.75,0-8.63q0-30.09,0-60.17c0-10.19.09-20.38,0-30.57C0,1.56,2.46,0,5.22,0Q39.39.11,73.55.05H138.4c.52,0,1,0,1.56,0A4.29,4.29,0,0,1,144,4.4c0,3.76,0,7.51,0,11.27q0,34.34,0,68.69c0,6.55-.08,13.11,0,19.66a4.59,4.59,0,0,1-4.9,4.9c-18.1,0-36.2,0-54.31,0ZM4.08,4.13V104.86H104.16v-1.35q0-6.17,0-12.34c0-1.88.75-2.63,2.62-2.63q10.13,0,20.25,0c1.92,0,2.6.71,2.6,2.61q0,6.18,0,12.35v1.31H140V4.13ZM125.61,92.65H108.2c0,4.13-.26,8.17,0,12.19h17.42Z"/><path class="cls-1" d="M53.1,65.09q-19,0-38,0c-3.14,0-3.52-.35-3.52-3.47q0-24.81,0-49.62c0-.32,0-.64,0-1,.06-1.5.74-2.2,2.22-2.22,3.68,0,7.35-.09,11-.09,4.67,0,9.34.07,14,.08,3.55,0,7.1-.08,10.66-.08,4.55,0,9.11.07,13.66.08,1.92,0,3.83-.08,5.75-.08l19.77.08c1,0,2-.05,3-.08,2.35-.07,3.06.59,3.06,2.9s-.07,4.8-.07,7.19c0,3.24.08,6.47.08,9.71,0,6.31-.07,12.62-.08,18.93,0,4.27,0,8.55.07,12.82,0,.76-.05,1.52-.07,2.28,0,2-.64,2.51-2.64,2.51l-7.79,0Zm37.56-4V12.86h-75v48.2Z"/><path class="cls-1" d="M53.21,79.82H91.09c.52,0,1,0,1.56,0a2,2,0,1,1,0,3.94c-1,0-2,0-3,0H42.36l-27.93,0h-.72a2,2,0,1,1-.05-3.92c.56,0,1.12,0,1.68,0Z"/><path class="cls-1" d="M53.14,74.42H14.07a4.35,4.35,0,0,1-1-.07,2,2,0,0,1,.14-3.84,6.47,6.47,0,0,1,1.08,0q37.75,0,75.5,0c.92,0,1.84,0,2.76,0a2,2,0,1,1,0,3.92q-8.14,0-16.3,0H53.14Z"/><path class="cls-1" d="M116.91,58h-10c-2,0-2.7-.69-2.7-2.65q0-7.55,0-15.08c0-1.89.72-2.63,2.6-2.63q10.19,0,20.36,0c1.73,0,2.51.77,2.51,2.47q0,7.73,0,15.45c0,1.72-.76,2.45-2.52,2.45-3.39,0-6.78,0-10.18,0Zm8.67-16.24H108.21V54h17.37Z"/><path class="cls-1" d="M117,13.15h10.19c1.79,0,2.48.69,2.48,2.46q0,7.66,0,15.34c0,1.77-.71,2.48-2.46,2.48q-10.26,0-20.5,0c-1.76,0-2.48-.71-2.49-2.47q0-7.66,0-15.34c0-1.76.71-2.44,2.5-2.45H117Zm8.64,16.27V17.2H108.22V29.42Z"/><path class="cls-1" d="M117,62.32h10.06c1.88,0,2.55.64,2.55,2.49q0,7.65,0,15.32c0,1.76-.71,2.46-2.48,2.46l-20.47,0c-1.76,0-2.49-.71-2.5-2.45q0-7.66,0-15.32c0-1.83.71-2.5,2.57-2.5H117Zm8.57,4.05H108.22v12.2h17.36Z"/><path class="cls-1" d="M40,92.58H13.88a2.12,2.12,0,0,1-2.28-2,2.08,2.08,0,0,1,2.2-2c.84,0,1.68,0,2.52,0l48.38,0a13.67,13.67,0,0,1,2,.11,2,2,0,0,1,1.7,1.88,2,2,0,0,1-1.74,2,17,17,0,0,1-2.15.08Q52.27,92.6,40,92.58Z"/></g></g></svg>